<svg width="231" height="242" version="1.1" xmlns="http://www.w3.org/2000/svg"><path fill="rgb(0,0,0)" stroke="rgb(0,0,0)" stroke-width="1" opacity="0" d="M 0 0 L 231 0 L 231 242 L 0 242 L 0 0 Z M 26 4 L 18 6 L 12 10 Q 7 15 5 23 L 5 223 L 9 232 Q 14 239 26 241 L 205 241 L 216 237 Q 223 232 226 222 L 226 24 L 223 16 Q 217 7 206 4 L 26 4 Z "></path><path fill="rgb(0,0,0)" stroke="rgb(0,0,0)" stroke-width="1" opacity="0" d="M 65.5 43 L 152.5 43 L 155.5 44 L 156.5 43 L 164 43 L 164 65.5 L 163.5 66 L 93 66 L 93 110.5 L 94.5 112 L 149 112 L 149 133 L 94.5 133 L 93 134.5 L 93 178.5 L 94.5 180 L 164 180 L 164 202.5 L 163.5 203 L 64 203 L 64 44.5 L 65.5 43 Z "></path><path fill="rgb(166,177,239)" stroke="rgb(166,177,239)" stroke-width="1" opacity="0.5019607843137255" d="M 25.5 4 L 206 4.5 L 25.5 5 L 25.5 4 Z "></path><path fill="rgb(166,177,239)" stroke="rgb(166,177,239)" stroke-width="1" opacity="0.5019607843137255" d="M 21.5 5 L 24 5.5 L 21.5 6 L 21.5 5 Z "></path><path fill="rgb(166,177,239)" stroke="rgb(166,177,239)" stroke-width="1" opacity="0.5019607843137255" d="M 207.5 5 L 210 5.5 L 207.5 6 L 207.5 5 Z "></path><path fill="rgb(166,177,239)" stroke="rgb(166,177,239)" stroke-width="1" opacity="0.5019607843137255" d="M 17.5 6 L 20 6.5 Q 13.4 8.4 10 13.5 L 8.5 16 L 8 14.5 L 11.5 10 L 17.5 6 Z "></path><path fill="rgb(166,177,239)" stroke="rgb(166,177,239)" stroke-width="1" opacity="0.5019607843137255" d="M 215.5 8 L 223 15.5 L 224 18.5 L 223 18.5 L 215.5 8 Z "></path><path fill="rgb(166,177,239)" stroke="rgb(166,177,239)" stroke-width="1" opacity="0.5019607843137255" d="M 5.5 22 L 6 222.5 L 5 222.5 L 5.5 22 Z "></path><path fill="rgb(166,177,239)" stroke="rgb(166,177,239)" stroke-width="1" opacity="0.5019607843137255" d="M 225.5 23 L 226 221.5 L 225 221.5 L 225.5 23 Z "></path><path fill="rgb(166,177,239)" stroke="rgb(166,177,239)" stroke-width="1" opacity="0.5019607843137255" d="M 63 43 L 65 43.5 L 63.5 48 L 63 43 Z "></path><path fill="rgb(166,177,239)" stroke="rgb(166,177,239)" stroke-width="1" opacity="0.5019607843137255" d="M 153.5 43 L 156 43.5 L 153.5 44 L 153.5 43 Z "></path><path fill="rgb(166,177,239)" stroke="rgb(166,177,239)" stroke-width="1" opacity="0.5019607843137255" d="M 164.5 43 L 165 67 L 94 67 L 94 111 L 150 111 L 150 134 L 94 134 L 94 179 L 165 179 L 165 202.5 L 164 202.5 L 164 180.5 L 163.5 180 L 94.5 180 L 93 178.5 L 93 134.5 L 94.5 133 L 149 133 L 149 112 L 94.5 112 L 93 110.5 L 93 66 L 163.5 66 L 164 65.5 L 164.5 43 Z "></path><path fill="rgb(166,177,239)" stroke="rgb(166,177,239)" stroke-width="1" opacity="0.5019607843137255" d="M 63.5 49 L 64 201.5 L 63 201.5 L 63.5 49 Z "></path><path fill="rgb(166,177,239)" stroke="rgb(166,177,239)" stroke-width="1" opacity="0.5019607843137255" d="M 223.5 226 L 224 227.5 L 222 228.5 L 223.5 226 Z "></path><path fill="rgb(166,177,239)" stroke="rgb(166,177,239)" stroke-width="1" opacity="0.5019607843137255" d="M 8.5 229 L 13.5 235 L 20 238.5 L 18.5 239 L 9 231.5 L 8.5 229 Z "></path><path fill="rgb(166,177,239)" stroke="rgb(166,177,239)" stroke-width="1" opacity="0.5019607843137255" d="M 221.5 230 L 215.5 237 L 213.5 238 L 214.5 236 L 221.5 230 Z "></path><path fill="rgb(166,177,239)" stroke="rgb(166,177,239)" stroke-width="1" opacity="0.5019607843137255" d="M 21.5 239 L 24 239.5 L 21.5 240 L 21.5 239 Z "></path><path fill="rgb(166,177,239)" stroke="rgb(166,177,239)" stroke-width="1" opacity="0.5019607843137255" d="M 207.5 239 L 210 239.5 L 207.5 240 L 207.5 239 Z "></path><path fill="rgb(166,177,239)" stroke="rgb(166,177,239)" stroke-width="1" opacity="0.5019607843137255" d="M 25.5 240 L 205 240.5 L 25.5 241 L 25.5 240 Z "></path><path fill="rgb(69,95,254)" stroke="rgb(69,95,254)" stroke-width="1" opacity="0.996078431372549" d="M 26.5 6 L 28.5 6 L 205.5 6 L 206 7.5 L 204.5 7 L 109 7.5 L 109.5 9 L 93 8.5 L 92.5 7 L 85.5 7 L 85.5 9 L 77 8.5 L 76.5 7 L 61.5 7 L 61.5 9 L 60.5 8 L 45.5 7 L 45.5 9 Q 43.8 6.3 37.5 8 Q 35.7 10.8 29.5 9 L 26.5 7 L 25 7.5 L 26.5 6 Z M 30 7 L 30 8 L 37 8 L 30 7 Z "></path><path fill="rgb(69,95,254)" stroke="rgb(69,95,254)" stroke-width="1" opacity="0.996078431372549" d="M 20.5 7 L 24 8 L 24 13 L 21.5 13 Q 20 10.5 18.5 14 L 12 16 L 12.5 18 L 14 17.5 Q 10.5 19 13 20.5 L 12.5 22 L 11 19.5 L 11 17.5 L 12 14 L 14 13.5 L 13.5 12 L 18 13 L 19.5 10 Q 21.3 13.8 23 10.5 L 20.5 7 Z "></path><path fill="rgb(69,95,254)" stroke="rgb(69,95,254)" stroke-width="1" opacity="0.996078431372549" d="M 208.5 7 L 212 8.5 L 210 9.5 L 212.5 13 L 211 13 L 211 11 Q 208.3 12.1 209 9.5 L 209.5 8 L 208.5 7 Z "></path><path fill="rgb(69,95,254)" stroke="rgb(69,95,254)" stroke-width="1" opacity="0.996078431372549" d="M 30.5 12 L 45 12.5 L 30 13 Q 31.3 16 27.5 15 L 27.5 14 L 30.5 12 Z "></path><path fill="rgb(69,95,254)" stroke="rgb(69,95,254)" stroke-width="1" opacity="0.996078431372549" d="M 208.5 12 L 207.5 14 L 208.5 12 Z "></path><path fill="rgb(69,95,254)" stroke="rgb(69,95,254)" stroke-width="1" opacity="0.996078431372549" d="M 216.5 13 L 218 14.5 L 217.5 17 L 216 15.5 L 216.5 13 Z "></path><path fill="rgb(69,95,254)" stroke="rgb(69,95,254)" stroke-width="1" opacity="0.996078431372549" d="M 205.5 14 L 209.5 16 L 211 15.5 Q 209.7 19 205 18 L 206 15.5 L 205.5 14 Z "></path><path fill="rgb(69,95,254)" stroke="rgb(69,95,254)" stroke-width="1" opacity="0.996078431372549" d="M 214.5 14 L 215 16 L 212.5 17 L 214.5 14 Z "></path><path fill="rgb(69,95,254)" stroke="rgb(69,95,254)" stroke-width="1" opacity="0.996078431372549" d="M 9.5 20 L 10 22.5 L 8 23.5 L 9.5 20 Z "></path><path fill="rgb(69,95,254)" stroke="rgb(69,95,254)" stroke-width="1" opacity="0.996078431372549" d="M 221 22 L 224 22.5 L 222 23 L 221.5 25 L 221 22 Z "></path><path fill="rgb(69,95,254)" stroke="rgb(69,95,254)" stroke-width="1" opacity="0.996078431372549" d="M 12.5 23 L 10 26.5 L 10.5 28 Q 7.5 27.1 9 31.5 L 9.5 33 L 7.5 30 L 6 30.5 L 7.5 25 L 8.5 28 L 9 25 L 12.5 23 Z "></path><path fill="rgb(69,95,254)" stroke="rgb(69,95,254)" stroke-width="1" opacity="0.996078431372549" d="M 12.5 27 L 14 31.5 L 12 32.5 L 11 29.5 L 12.5 27 Z "></path><path fill="rgb(69,95,254)" stroke="rgb(69,95,254)" stroke-width="1" opacity="0.996078431372549" d="M 70.5 33 L 73 33.5 L 70.5 34 L 70.5 33 Z "></path><path fill="rgb(69,95,254)" stroke="rgb(69,95,254)" stroke-width="1" opacity="0.996078431372549" d="M 75 33 L 140.5 33 L 143 34.5 L 140.5 35 L 78.5 35 L 76.5 36 L 75 33 Z "></path><path fill="rgb(69,95,254)" stroke="rgb(69,95,254)" stroke-width="1" opacity="0.996078431372549" d="M 166.5 33 L 169 33.5 L 166.5 34 L 166.5 33 Z "></path><path fill="rgb(69,95,254)" stroke="rgb(69,95,254)" stroke-width="1" opacity="0.996078431372549" d="M 7.5 34 L 8 40.5 L 7 40.5 L 7.5 34 Z "></path><path fill="rgb(69,95,254)" stroke="rgb(69,95,254)" stroke-width="1" opacity="0.996078431372549" d="M 12.5 34 L 13 72.5 L 12 73.5 L 12 192.5 L 13 193.5 L 13 207.5 L 12 212.5 L 13 215.5 L 12 218.5 L 13 221.5 L 12 223.5 L 13 226.5 L 10.5 229 L 9 227.5 L 12 224.5 L 12 222.5 Q 12.8 220.3 10.5 221 L 8 222.5 L 11 217.5 L 11 41.5 L 12.5 34 Z "></path><path fill="rgb(69,95,254)" stroke="rgb(69,95,254)" stroke-width="1" opacity="0.996078431372549" d="M 66 35 Q 69.8 33.5 69 36.5 L 74 39.5 Q 74.8 41.8 72.5 41 Q 71 43.5 65.5 42 L 65.5 41 L 69.5 40 L 71 40.5 Q 71.9 37.5 67.5 39 L 67.5 37 Q 64.9 37.7 66 35 Z "></path><path fill="rgb(69,95,254)" stroke="rgb(69,95,254)" stroke-width="1" opacity="0.996078431372549" d="M 154.5 35 Q 158.3 34 157 37 L 153 36.5 L 154.5 35 Z "></path><path fill="rgb(69,95,254)" stroke="rgb(69,95,254)" stroke-width="1" opacity="0.996078431372549" d="M 161.5 35 L 167 37 Q 168.5 40.7 165.5 40 L 160.5 38 L 158 39 Q 156.9 36.3 159.5 37 L 161.5 35 Z "></path><path fill="rgb(69,95,254)" stroke="rgb(69,95,254)" stroke-width="1" opacity="0.996078431372549" d="M 171 35 Q 174 34 173 37 Q 170 38 171 35 Z "></path><path fill="rgb(69,95,254)" stroke="rgb(69,95,254)" stroke-width="1" opacity="0.996078431372549" d="M 146.5 36 L 151 36.5 L 146.5 37 L 146.5 36 Z "></path><path fill="rgb(69,95,254)" stroke="rgb(69,95,254)" stroke-width="1" opacity="0.996078431372549" d="M 149.5 38 L 152 38.5 L 150.5 40 L 148 39.5 L 149.5 38 Z "></path><path fill="rgb(69,95,254)" stroke="rgb(69,95,254)" stroke-width="1" opacity="0.996078431372549" d="M 78 39 L 140 39.5 L 139.5 41 L 155 41.5 L 75.5 42 L 75.5 41 Q 79.3 42 78 39 Z "></path><path fill="rgb(69,95,254)" stroke="rgb(69,95,254)" stroke-width="1" opacity="0.996078431372549" d="M 171 39 Q 174.3 37.9 173 42 Q 169.7 43.1 171 39 Z "></path><path fill="rgb(69,95,254)" stroke="rgb(69,95,254)" stroke-width="1" opacity="0.996078431372549" d="M 63.5 40 L 64 42 L 62 41.5 L 63.5 40 Z "></path><path fill="rgb(69,95,254)" stroke="rgb(69,95,254)" stroke-width="1" opacity="0.996078431372549" d="M 156.5 41 L 167.5 41 L 168.5 42 L 170 41.5 Q 170.8 43.8 168.5 43 L 168.5 45 L 167 44.5 L 167.5 47 L 170 46 L 171 48.5 L 168.5 50 L 166 48.5 L 166 46.5 L 166 42 L 156.5 42 L 156.5 41 Z "></path><path fill="rgb(69,95,254)" stroke="rgb(69,95,254)" stroke-width="1" opacity="0.996078431372549" d="M 222.5 41 L 223 136.5 L 222 136.5 L 222.5 41 Z "></path><path fill="rgb(69,95,254)" stroke="rgb(69,95,254)" stroke-width="1" opacity="0.996078431372549" d="M 9.5 49 L 10 72.5 L 9 72.5 L 9.5 49 Z "></path><path fill="rgb(69,95,254)" stroke="rgb(69,95,254)" stroke-width="1" opacity="0.996078431372549" d="M 94 68 Q 98.5 67.2 100.5 70 L 100.5 68 L 101.5 69 L 123.5 69 L 124.5 68 L 140.5 68 L 141.5 69 L 157 69.5 L 155 70 L 154.5 72 L 153.5 70 L 152.5 72 L 151.5 70 L 150.5 72 L 149.5 70 L 148.5 72 L 147.5 70 L 146.5 72 L 145.5 70 L 144.5 72 L 143.5 70 L 143 72 L 124.5 72 L 124 70.5 L 123 70.5 L 122.5 72 L 121.5 70 L 120.5 72 L 119.5 70 L 118.5 72 L 117.5 70 L 116.5 72 L 115.5 70 L 114.5 72 L 113.5 70 L 112.5 72 L 111.5 70 L 110.5 72 L 110 70 L 95 71 L 94.5 77 L 94 68 Z "></path><path fill="rgb(69,95,254)" stroke="rgb(69,95,254)" stroke-width="1" opacity="0.996078431372549" d="M 163.5 68 L 163.5 70 L 165 70.5 L 162 72 Q 163.3 75.7 157.5 74 L 157.5 72 L 156 71.5 L 157.5 71 L 160.5 73 L 160 71.5 L 159 69.5 L 161.5 71 L 163 70.5 Q 160.8 69.2 163.5 68 Z "></path><path fill="rgb(69,95,254)" stroke="rgb(69,95,254)" stroke-width="1" opacity="0.996078431372549" d="M 100.5 72 L 101 80.5 L 100 80.5 L 100.5 72 Z "></path><path fill="rgb(69,95,254)" stroke="rgb(69,95,254)" stroke-width="1" opacity="0.996078431372549" d="M 97.5 73 L 98.5 75 L 96 74.5 L 97.5 73 Z "></path><path fill="rgb(69,95,254)" stroke="rgb(69,95,254)" stroke-width="1" opacity="0.996078431372549" d="M 170.5 73 L 173 74.5 L 170 75 L 170.5 73 Z "></path><path fill="rgb(69,95,254)" stroke="rgb(69,95,254)" stroke-width="1" opacity="0.996078431372549" d="M 158.5 75 Q 162.3 74.3 163 76.5 L 159.5 77 L 157 76.5 L 158.5 75 Z "></path><path fill="rgb(69,95,254)" stroke="rgb(69,95,254)" stroke-width="1" opacity="0.996078431372549" d="M 97.5 76 L 98 88.5 L 97 88.5 L 97.5 76 Z "></path><path fill="rgb(69,95,254)" stroke="rgb(69,95,254)" stroke-width="1" opacity="0.996078431372549" d="M 102 97 Q 105.7 95.5 105 98.5 L 106 100.5 L 105 100.5 L 103.5 98 L 101.5 101 L 101 99.5 L 102 97 Z "></path><path fill="rgb(69,95,254)" stroke="rgb(69,95,254)" stroke-width="1" opacity="0.996078431372549" d="M 151 97 L 155 98.5 L 153.5 101 L 149.5 103 L 150 101.5 L 151 97 Z "></path><path fill="rgb(69,95,254)" stroke="rgb(69,95,254)" stroke-width="1" opacity="0.996078431372549" d="M 109 99 L 140.5 99 L 141 100.5 L 143.5 102 L 146.5 101 L 145.5 103 Q 139.5 104.3 140.5 101 L 109.5 101 L 109 99 Z "></path><path fill="rgb(69,95,254)" stroke="rgb(69,95,254)" stroke-width="1" opacity="0.996078431372549" d="M 109 103 Q 112 102 111 105 L 107.5 106 L 107.5 105 Q 110.1 105.7 109 103 Z "></path><path fill="rgb(69,95,254)" stroke="rgb(69,95,254)" stroke-width="1" opacity="0.996078431372549" d="M 97.5 104 L 100 104.5 Q 97.9 107.8 97.5 104 Z "></path><path fill="rgb(69,95,254)" stroke="rgb(69,95,254)" stroke-width="1" opacity="0.996078431372549" d="M 61.5 105 L 62 144.5 L 61 144.5 L 61.5 105 Z "></path><path fill="rgb(69,95,254)" stroke="rgb(69,95,254)" stroke-width="1" opacity="0.996078431372549" d="M 101.5 105 L 105 106.5 L 103.5 107 L 101.5 106 L 100 106.5 L 101.5 105 Z "></path><path fill="rgb(69,95,254)" stroke="rgb(69,95,254)" stroke-width="1" opacity="0.996078431372549" d="M 144.5 105 L 147.5 105 L 151 107 Q 152.1 109.7 149.5 109 L 145.5 110 L 141.5 109 L 140.5 110 L 97.5 110 L 95 108.5 L 96.5 108 L 98.5 109 L 98.5 107 L 100.5 109 L 110 109 L 110.5 107 L 132.5 107 Q 140 106 143 108 L 144.5 105 Z M 134 108 L 134 109 L 141 109 L 134 108 Z "></path><path fill="rgb(69,95,254)" stroke="rgb(69,95,254)" stroke-width="1" opacity="0.996078431372549" d="M 154.5 108 L 156 112.5 L 155 112.5 L 154.5 108 Z "></path><path fill="rgb(69,95,254)" stroke="rgb(69,95,254)" stroke-width="1" opacity="0.996078431372549" d="M 152.5 112 L 152 113.5 L 152 128.5 L 150.5 131 L 150 129.5 L 151 128.5 L 151 113.5 L 152.5 112 Z "></path><path fill="rgb(69,95,254)" stroke="rgb(69,95,254)" stroke-width="1" opacity="0.996078431372549" d="M 153 121 L 155 121 L 155 128.5 L 156.5 129 L 156 130.5 L 155.5 132 L 155 129 L 153 128.5 L 153 121 Z "></path><path fill="rgb(69,95,254)" stroke="rgb(69,95,254)" stroke-width="1" opacity="0.996078431372549" d="M 153.5 130 L 154 136 L 157 137.5 L 155.5 138 L 152 135.5 L 153.5 130 Z "></path><path fill="rgb(69,95,254)" stroke="rgb(69,95,254)" stroke-width="1" opacity="0.996078431372549" d="M 150.5 133 L 151 136.5 L 149.5 136 L 148 135.5 L 150 135 L 150.5 133 Z "></path><path fill="rgb(69,95,254)" stroke="rgb(69,95,254)" stroke-width="1" opacity="0.996078431372549" d="M 99.5 135 Q 101.8 134.3 101 136.5 L 99.5 135 Z "></path><path fill="rgb(69,95,254)" stroke="rgb(69,95,254)" stroke-width="1" opacity="0.996078431372549" d="M 124.5 135 L 142 135.5 L 140.5 137 L 125.5 137 L 124.5 135 Z "></path><path fill="rgb(69,95,254)" stroke="rgb(69,95,254)" stroke-width="1" opacity="0.996078431372549" d="M 143.5 135 L 147 135.5 L 143.5 136 L 143.5 135 Z "></path><path fill="rgb(69,95,254)" stroke="rgb(69,95,254)" stroke-width="1" opacity="0.996078431372549" d="M 95.5 137 L 96 146 Q 93 147.3 94 143.5 L 95.5 137 Z "></path><path fill="rgb(69,95,254)" stroke="rgb(69,95,254)" stroke-width="1" opacity="0.996078431372549" d="M 144 139 Q 148.3 138 147.5 141 L 152.5 141 L 152.5 142 L 148 143.5 L 148.5 145 L 146.5 144 Q 145.3 146.3 144 143.5 L 147 142.5 L 144 141 L 144 139 Z "></path><path fill="rgb(69,95,254)" stroke="rgb(69,95,254)" stroke-width="1" opacity="0.996078431372549" d="M 103.5 140 L 107.5 142 L 111 142.5 L 102 143 L 103.5 140 Z "></path><path fill="rgb(69,95,254)" stroke="rgb(69,95,254)" stroke-width="1" opacity="0.996078431372549" d="M 140.5 141 L 143 142.5 L 142.5 144 L 141 143.5 L 140.5 145 L 140 143.5 L 140.5 141 Z "></path><path fill="rgb(69,95,254)" stroke="rgb(69,95,254)" stroke-width="1" opacity="0.996078431372549" d="M 61.5 161 L 62 168.5 L 61 168.5 L 61.5 161 Z "></path><path fill="rgb(69,95,254)" stroke="rgb(69,95,254)" stroke-width="1" opacity="0.996078431372549" d="M 95.5 171 L 96 173.5 L 95 173.5 L 95.5 171 Z "></path><path fill="rgb(69,95,254)" stroke="rgb(69,95,254)" stroke-width="1" opacity="0.996078431372549" d="M 99.5 173 L 100 177 L 112 177.5 L 97.5 178 L 96 175.5 L 97 175.5 Q 96.3 178.1 99 177 L 99.5 173 Z "></path><path fill="rgb(69,95,254)" stroke="rgb(69,95,254)" stroke-width="1" opacity="0.996078431372549" d="M 160.5 176 L 159.5 178 L 158 177.5 L 160.5 176 Z "></path><path fill="rgb(69,95,254)" stroke="rgb(69,95,254)" stroke-width="1" opacity="0.996078431372549" d="M 170.5 176 L 171 179.5 L 169 180.5 L 170.5 176 Z "></path><path fill="rgb(69,95,254)" stroke="rgb(69,95,254)" stroke-width="1" opacity="0.996078431372549" d="M 165.5 177 L 166.5 179 L 167.5 177 L 168 179.5 L 166.5 183 L 165.5 177 Z "></path><path fill="rgb(69,95,254)" stroke="rgb(69,95,254)" stroke-width="1" opacity="0.996078431372549" d="M 222.5 177 L 224 200.5 L 223 200.5 L 222.5 177 Z "></path><path fill="rgb(69,95,254)" stroke="rgb(69,95,254)" stroke-width="1" opacity="0.996078431372549" d="M 172.5 182 L 174 184.5 L 172.5 187 L 171 186.5 L 168.5 191 L 169 189.5 L 169 186 Q 172 187.3 171 183.5 L 172.5 182 Z "></path><path fill="rgb(69,95,254)" stroke="rgb(69,95,254)" stroke-width="1" opacity="0.996078431372549" d="M 166.5 192 L 168.5 196 L 169 194.5 L 168.5 193 L 171 194 L 169.5 201 L 169 198 Q 166 199.3 167 195.5 L 166.5 192 Z "></path><path fill="rgb(69,95,254)" stroke="rgb(69,95,254)" stroke-width="1" opacity="0.996078431372549" d="M 7.5 193 L 8 210.5 L 7 210.5 L 7.5 193 Z "></path><path fill="rgb(69,95,254)" stroke="rgb(69,95,254)" stroke-width="1" opacity="0.996078431372549" d="M 60.5 198 L 62 200.5 L 60 201 L 60.5 198 Z "></path><path fill="rgb(69,95,254)" stroke="rgb(69,95,254)" stroke-width="1" opacity="0.996078431372549" d="M 166.5 199 L 168 201.5 L 167 205 L 164 205.5 L 164.5 207 L 162.5 204 Q 164.2 206.8 166 202.5 L 166.5 199 Z "></path><path fill="rgb(69,95,254)" stroke="rgb(69,95,254)" stroke-width="1" opacity="0.996078431372549" d="M 171.5 199 L 173 202.5 L 171 201.5 L 171.5 199 Z "></path><path fill="rgb(69,95,254)" stroke="rgb(69,95,254)" stroke-width="1" opacity="0.996078431372549" d="M 60.5 203 L 62.5 206 L 65 204.5 Q 61.9 206.3 63.5 208 L 60 206 L 60.5 203 Z "></path><path fill="rgb(69,95,254)" stroke="rgb(69,95,254)" stroke-width="1" opacity="0.996078431372549" d="M 67.5 204 Q 71.9 202.5 71 205.5 L 68 207 L 67.5 204 Z "></path><path fill="rgb(69,95,254)" stroke="rgb(69,95,254)" stroke-width="1" opacity="0.996078431372549" d="M 76.5 204 L 86 204.5 L 76.5 205 L 76.5 204 Z "></path><path fill="rgb(69,95,254)" stroke="rgb(69,95,254)" stroke-width="1" opacity="0.996078431372549" d="M 87.5 204 Q 93.5 202.5 95 205.5 L 93.5 205 L 87.5 205 L 87.5 204 Z "></path><path fill="rgb(69,95,254)" stroke="rgb(69,95,254)" stroke-width="1" opacity="0.996078431372549" d="M 141.5 204 L 155.5 204 Q 159.7 202.7 158 207.5 L 156.5 207 L 141.5 207 L 140 205.5 L 141.5 204 Z "></path><path fill="rgb(69,95,254)" stroke="rgb(69,95,254)" stroke-width="1" opacity="0.996078431372549" d="M 171.5 205 L 174 206.5 L 172.5 210 Q 169.9 210.8 171 207.5 L 171.5 205 Z "></path><path fill="rgb(69,95,254)" stroke="rgb(69,95,254)" stroke-width="1" opacity="0.996078431372549" d="M 66.5 206 L 66 207.5 Q 65.3 209.8 67.5 209 L 67.5 210 L 65 208.5 L 66.5 206 Z "></path><path fill="rgb(69,95,254)" stroke="rgb(69,95,254)" stroke-width="1" opacity="0.996078431372549" d="M 74 206 L 76 206.5 L 75.5 209 L 73 208.5 L 74 206 Z "></path><path fill="rgb(69,95,254)" stroke="rgb(69,95,254)" stroke-width="1" opacity="0.996078431372549" d="M 86.5 206 L 92 207.5 Q 90.8 210.2 89.5 208 L 86.5 209 L 83.5 208 L 79.5 209 L 77 208.5 L 77.5 207 L 85.5 207 L 86.5 206 Z "></path><path fill="rgb(69,95,254)" stroke="rgb(69,95,254)" stroke-width="1" opacity="0.996078431372549" d="M 159.5 207 L 160.5 209 Q 157.7 209.7 159.5 207 Z "></path><path fill="rgb(69,95,254)" stroke="rgb(69,95,254)" stroke-width="1" opacity="0.996078431372549" d="M 164.5 208 L 165.5 210 Q 162.7 210.7 164.5 208 Z "></path><path fill="rgb(69,95,254)" stroke="rgb(69,95,254)" stroke-width="1" opacity="0.996078431372549" d="M 223.5 209 L 224 216 Q 221 217.3 222 213.5 L 223.5 209 Z "></path><path fill="rgb(69,95,254)" stroke="rgb(69,95,254)" stroke-width="1" opacity="0.996078431372549" d="M 9.5 216 L 8 218.5 L 7.5 220 L 7 218.5 L 9.5 216 Z "></path><path fill="rgb(69,95,254)" stroke="rgb(69,95,254)" stroke-width="1" opacity="0.996078431372549" d="M 222.5 217 L 223.5 219 L 221.5 220 L 222 218.5 L 222.5 217 Z "></path><path fill="rgb(69,95,254)" stroke="rgb(69,95,254)" stroke-width="1" opacity="0.996078431372549" d="M 20.5 224 L 25 229.5 L 23.5 229 Q 21.3 229.8 22 227.5 Q 19 226.5 20.5 224 Z "></path><path fill="rgb(69,95,254)" stroke="rgb(69,95,254)" stroke-width="1" opacity="0.996078431372549" d="M 17.5 225 L 18.5 227 L 17.5 225 Z "></path><path fill="rgb(69,95,254)" stroke="rgb(69,95,254)" stroke-width="1" opacity="0.996078431372549" d="M 25 225 Q 30.2 223.3 29 227 Q 23.8 228.7 25 225 Z "></path><path fill="rgb(69,95,254)" stroke="rgb(69,95,254)" stroke-width="1" opacity="0.996078431372549" d="M 205 225 Q 208 224 207 227 L 210.5 227 L 208.5 230 Q 206.3 230.8 207 228.5 L 205 225 Z "></path><path fill="rgb(69,95,254)" stroke="rgb(69,95,254)" stroke-width="1" opacity="0.996078431372549" d="M 211.5 225 Q 213.8 224.3 213 226.5 L 211.5 225 Z "></path><path fill="rgb(69,95,254)" stroke="rgb(69,95,254)" stroke-width="1" opacity="0.996078431372549" d="M 216.5 225 L 215.5 227 L 216.5 225 Z "></path><path fill="rgb(69,95,254)" stroke="rgb(69,95,254)" stroke-width="1" opacity="0.996078431372549" d="M 14.5 227 L 18 229.5 Q 16.3 232.8 14.5 229 L 12.5 230 L 14.5 227 Z "></path><path fill="rgb(69,95,254)" stroke="rgb(69,95,254)" stroke-width="1" opacity="0.996078431372549" d="M 217.5 227 L 220 228.5 L 218.5 228 L 217.5 227 Z "></path><path fill="rgb(69,95,254)" stroke="rgb(69,95,254)" stroke-width="1" opacity="0.996078431372549" d="M 213.5 228 L 217 229.5 L 215.5 230 L 213.5 228 Z "></path><path fill="rgb(69,95,254)" stroke="rgb(69,95,254)" stroke-width="1" opacity="0.996078431372549" d="M 28.5 229 Q 31.3 230.2 29 231.5 L 29.5 234 L 44.5 234 L 44.5 235 L 28.5 235 L 27 233.5 Q 26.3 229.8 28.5 229 Z "></path><path fill="rgb(69,95,254)" stroke="rgb(69,95,254)" stroke-width="1" opacity="0.996078431372549" d="M 24 231 L 26 231.5 L 25 233.5 L 26.5 236 L 24 235 L 24 231 Z "></path><path fill="rgb(69,95,254)" stroke="rgb(69,95,254)" stroke-width="1" opacity="0.996078431372549" d="M 211.5 231 L 215.5 233 L 217 232.5 L 211.5 237 L 209.5 237 L 208.5 235 L 211.5 236 L 212.5 234 L 210 233.5 L 211.5 231 Z "></path><path fill="rgb(69,95,254)" stroke="rgb(69,95,254)" stroke-width="1" opacity="0.996078431372549" d="M 16.5 232 L 21.5 235 L 21.5 233 Q 25 235 20.5 237 L 15 233.5 L 16.5 232 Z "></path><path fill="rgb(69,95,254)" stroke="rgb(69,95,254)" stroke-width="1" opacity="0.996078431372549" d="M 53.5 234 L 61 234.5 L 53.5 235 L 53.5 234 Z "></path><path fill="rgb(69,95,254)" stroke="rgb(69,95,254)" stroke-width="1" opacity="0.996078431372549" d="M 77.5 234 L 173 234.5 L 77.5 235 L 77.5 234 Z "></path><path fill="rgb(69,95,254)" stroke="rgb(69,95,254)" stroke-width="1" opacity="0.996078431372549" d="M 181.5 234 L 200 234.5 L 181.5 235 L 181.5 234 Z "></path><path fill="rgb(69,95,254)" stroke="rgb(69,95,254)" stroke-width="1" opacity="0.996078431372549" d="M 23.5 236 L 22.5 238 L 23.5 236 Z "></path><path fill="rgb(69,95,254)" stroke="rgb(69,95,254)" stroke-width="1" opacity="0.996078431372549" d="M 45.5 236 L 60.5 237 L 61.5 236 L 148.5 236 L 149.5 237 L 172.5 237 Q 174.2 234.2 180.5 236 L 189 237.5 L 181.5 238 Q 179.8 235.3 173.5 237 L 172.5 238 L 145.5 239 L 144.5 238 L 82.5 238 L 77 239 L 76.5 237 L 69.5 237 L 68.5 238 L 30.5 238 L 29.5 239 L 30.5 237 L 44.5 237 L 45.5 236 Z "></path><path fill="rgb(69,95,254)" stroke="rgb(69,95,254)" stroke-width="1" opacity="0.996078431372549" d="M 197.5 236 L 207 236.5 Q 205.8 239.3 204.5 237 L 197.5 237 L 197.5 236 Z "></path><path fill="rgb(70,96,255)" stroke="rgb(70,96,255)" stroke-width="1" opacity="1" d="M 23.5 6 L 24 8 L 26.5 7 L 28.5 8 Q 30.3 5.3 36.5 7 Q 38.3 9.8 44.5 8 Q 46.3 5.3 52.5 7 Q 54.3 9.8 60.5 8 L 61.5 7 L 77 7 L 77.5 9 L 83.5 9 L 85.5 7 L 92.5 7 L 93 8.5 L 107.5 9 L 109.5 7 L 204.5 7 L 205.5 8 L 206 6 L 208 6 Q 206.9 8.7 209.5 8 L 211 7.5 L 210.5 9 L 212.5 8 L 215.5 12 L 217 11.5 L 218.5 14 L 220 14.5 L 219 18 L 221.5 17 L 222 18.5 L 221.5 20 Q 224.1 19.3 223 22 Q 220 20.8 221 24.5 L 222 24.5 Q 221.3 22.3 223.5 23 L 224 25.5 L 223 28.5 L 224 29.5 L 224 192.5 Q 221.2 194.3 223 200.5 Q 225.8 202.2 224 208.5 L 222 216 Q 224.7 214.9 224 217.5 L 222 217.5 Q 221.3 219.8 223.5 219 L 223 220.5 L 224 222.5 L 222 223.5 L 222 225.5 Q 223.3 229.3 219.5 228 L 219.5 230 Q 218.3 227.8 217 230.5 L 217.5 232 L 216 232.5 L 216.5 234 L 214.5 233 L 212.5 237 L 209.5 236 L 209.5 237 L 211 237.5 L 209.5 238 L 207.5 237 L 206 237.5 L 206.5 236 L 197 236.5 L 205 237.5 L 189.5 238 Q 187.8 235.3 181.5 237 Q 179.8 239.7 173.5 238 L 172.5 237 L 149.5 237 L 148.5 236 L 61.5 236 Q 59.8 238.8 53.5 237 Q 51.8 234.2 45.5 236 L 44.5 237 L 30.5 237 L 28.5 239 L 25.5 237 L 24 237.5 L 26 234.5 L 25 232.5 L 25.5 231 L 24 231 Q 25.5 234.7 22.5 234 L 22.5 235 L 24 235.5 L 21 237.5 L 22 235.5 L 20.5 235 Q 18.8 238.8 17 235.5 L 18.5 233 L 16.5 234 L 14 233.5 Q 14.8 230.9 11.5 232 L 11.5 230 L 10 229.5 L 12 225.5 L 10.5 224 L 9 223.5 L 10 221 L 8 221 Q 9.5 217.3 6.5 218 L 8 215.5 L 7 211.5 L 8 210.5 L 8 193.5 L 7 193.5 L 6.5 209 L 6 33.5 L 7 33.5 L 7.5 41 L 9 28.5 L 7.5 25 L 6.5 29 L 6 25.5 L 9 23.5 L 7 22.5 L 8.5 22 L 10 22.5 L 9.5 20 L 8 20.5 L 8.5 18 Q 11.1 18.8 10 15.5 L 11 13 Q 15.9 13.1 18 9.5 Q 17.2 6.9 20.5 8 L 23.5 6 Z M 22 8 L 23 11 L 21 13 L 24 13 L 27 9 L 26 9 L 22 8 Z M 30 8 L 30 9 L 37 9 L 30 8 Z M 207 8 L 205 10 Q 204 12 208 11 L 207 8 Z M 210 9 Q 208 12 211 11 L 210 9 Z M 20 10 L 18 13 Q 13 12 11 16 L 12 18 L 13 16 L 14 18 L 16 17 L 15 16 L 18 14 Q 20 13 19 16 L 21 16 L 20 13 Q 22 11 20 10 Z M 212 11 Q 210 14 213 13 L 212 11 Z M 31 12 L 31 13 L 45 13 L 31 12 Z M 30 13 L 27 15 L 30 15 L 30 13 Z M 215 14 L 213 16 L 215 16 L 215 14 Z M 207 15 L 205 18 Q 209 19 210 17 L 207 15 Z M 11 18 Q 9 21 12 20 L 11 18 Z M 10 24 Q 7 29 11 28 L 11 26 L 10 24 Z M 13 27 L 11 30 L 12 33 L 14 32 L 13 27 Z M 71 33 L 71 34 L 73 34 L 71 33 Z M 75 33 L 77 36 L 79 35 L 140 34 L 143 35 L 143 33 L 75 33 Z M 155 33 L 155 34 L 158 34 L 155 33 Z M 167 33 L 167 34 L 169 34 L 167 33 Z M 13 34 L 11 42 L 11 218 L 10 219 L 12 219 L 13 216 L 12 213 L 13 208 L 13 194 L 12 193 L 12 74 L 13 73 L 13 34 Z M 66 35 L 68 39 Q 72 37 71 41 L 70 40 L 68 41 L 64 40 Q 61 41 62 47 L 62 49 L 62 105 L 61 106 L 61 145 L 62 146 L 62 161 L 61 162 Q 59 168 62 170 L 62 198 L 60 198 Q 58 202 62 201 L 63 203 Q 59 202 60 206 L 63 207 Q 65 206 63 205 L 65 205 L 67 204 L 68 207 L 67 206 L 65 209 L 67 208 L 67 210 L 70 209 L 69 206 L 73 206 L 74 205 L 89 205 L 92 206 L 94 205 L 142 205 L 141 207 L 157 207 L 159 208 Q 158 210 161 209 L 160 206 L 164 204 L 165 206 L 164 210 L 168 208 L 167 203 L 167 201 Q 166 197 169 198 L 170 201 L 171 197 Q 172 193 169 194 L 169 196 L 166 192 L 167 189 L 166 186 L 167 183 Q 166 179 169 180 Q 170 182 171 180 L 171 176 L 167 177 L 167 179 L 166 178 Q 164 179 163 176 Q 161 179 160 177 L 158 178 L 113 178 L 112 177 L 101 177 L 100 174 L 99 174 Q 100 178 97 177 L 95 171 L 95 147 L 96 146 L 96 138 L 95 137 L 97 136 L 99 136 L 101 137 L 101 136 L 124 135 L 126 137 L 141 137 L 143 135 Q 144 138 150 136 L 151 137 Q 150 132 153 133 L 152 136 L 156 138 L 157 138 L 154 136 L 154 130 L 151 131 L 152 129 L 152 114 L 153 113 L 150 110 L 150 109 Q 152 110 151 107 L 148 105 L 145 105 L 143 108 L 141 109 L 145 109 L 145 110 L 133 109 L 141 108 L 133 107 L 111 107 L 110 109 L 101 109 L 100 108 L 98 109 Q 93 107 96 106 L 95 101 L 96 98 L 95 97 L 95 71 L 101 71 L 98 69 L 100 68 L 102 68 L 124 69 L 101 70 L 110 70 L 111 72 L 112 70 L 113 72 L 114 70 L 115 72 L 116 70 L 117 72 L 118 70 L 119 72 L 120 70 L 121 72 L 122 70 L 123 72 L 123 71 L 124 71 L 125 72 L 143 72 L 144 70 L 145 72 L 146 70 L 147 72 L 148 70 L 149 72 L 150 70 L 151 72 L 152 70 L 153 72 L 154 70 L 155 72 L 155 70 L 157 70 L 142 69 L 142 68 L 161 68 L 161 70 L 163 70 L 162 69 L 164 69 L 164 68 L 166 68 L 168 67 L 166 65 L 166 49 L 169 50 L 173 49 L 173 45 L 171 48 L 170 46 L 168 47 L 167 45 L 169 45 L 171 45 L 170 42 L 169 42 L 168 41 L 140 41 L 140 39 L 79 39 L 78 41 L 74 41 L 74 40 L 69 37 Q 70 34 66 35 Z M 155 35 L 153 37 L 157 37 Q 158 34 155 35 Z M 162 35 L 160 37 Q 157 36 158 39 L 161 38 L 166 40 Q 168 41 167 37 L 162 35 Z M 171 35 Q 170 38 173 37 Q 174 34 171 35 Z M 147 36 L 147 37 L 151 37 L 147 36 Z M 171 39 Q 170 43 173 42 Q 174 38 171 39 Z M 223 41 L 222 137 L 223 137 L 223 41 Z M 10 49 L 9 73 L 10 73 L 10 49 Z M 171 67 L 171 69 Q 170 71 173 70 Q 175 66 171 67 Z M 160 69 L 159 71 L 161 73 L 159 72 L 158 74 L 162 74 Q 161 71 164 72 L 165 70 L 163 71 L 160 69 Z M 158 70 L 156 72 L 158 72 L 158 70 Z M 101 72 L 100 81 L 101 81 L 101 72 Z M 98 73 L 96 75 L 99 75 L 98 73 Z M 171 73 L 170 75 L 173 75 L 171 73 Z M 159 75 L 158 77 L 163 77 Q 162 74 159 75 Z M 98 76 L 97 89 L 98 89 L 98 76 Z M 102 97 L 102 99 L 105 99 Q 106 95 102 97 Z M 151 97 L 150 100 L 151 102 L 154 101 L 155 99 L 151 97 Z M 109 99 L 110 101 L 141 101 L 141 99 L 109 99 Z M 141 101 L 141 103 Q 146 104 147 102 L 141 101 Z M 109 103 Q 108 106 111 105 Q 112 102 109 103 Z M 104 104 L 101 106 L 104 107 L 109 106 L 104 104 Z M 154 108 L 155 113 L 156 113 Q 158 107 154 108 Z M 153 121 L 153 129 L 155 129 L 155 122 L 153 121 Z M 155 129 L 156 132 L 157 130 L 155 129 Z M 144 139 L 144 141 L 147 143 L 145 143 L 146 145 L 151 143 Q 153 147 155 143 L 153 141 L 148 141 Q 148 138 144 139 Z M 103 141 L 102 143 L 111 143 L 108 142 L 103 141 Z M 141 141 L 143 144 L 143 143 L 141 141 Z M 223 177 L 222 193 L 223 193 L 223 177 Z M 173 182 L 171 184 L 173 187 L 174 185 L 173 182 Z M 169 186 L 170 190 L 171 188 Q 172 185 169 186 Z M 172 199 L 172 203 L 170 204 L 172 204 L 172 207 L 171 210 L 174 209 L 173 201 L 172 199 Z M 74 206 L 74 208 L 76 207 L 74 206 Z M 87 206 Q 86 208 90 208 Q 91 210 92 208 L 87 206 Z M 77 207 L 78 209 Q 83 210 86 208 L 77 207 Z M 21 224 L 22 229 L 25 230 L 27 229 L 26 234 L 29 235 L 45 235 L 29 234 L 28 231 L 29 225 Q 24 223 25 228 L 21 224 Z M 205 225 L 207 229 Q 206 231 209 230 L 211 227 L 207 227 Q 208 224 205 225 Z M 212 225 Q 212 229 214 226 L 212 225 Z M 214 226 L 213 229 L 216 230 L 219 228 L 219 227 L 216 228 L 216 227 L 214 226 Z M 15 227 L 13 229 L 15 229 Q 16 233 18 230 L 15 227 Z M 212 231 L 210 234 L 211 235 L 214 233 L 212 231 Z M 206 233 Q 205 236 208 235 L 209 236 Q 210 231 206 233 Z M 54 234 L 54 235 L 61 235 L 54 234 Z M 78 234 L 78 235 L 173 235 L 78 234 Z M 182 234 L 182 235 L 200 235 L 182 234 Z M 174 236 L 174 237 L 181 237 L 174 236 Z "></path><path fill="rgb(70,96,255)" stroke="rgb(70,96,255)" stroke-width="1" opacity="1" d="M 69.5 237 L 77 237.5 L 69.5 238 L 69.5 237 Z "></path><path fill="rgb(70,94,247)" stroke="rgb(70,94,247)" stroke-width="1" opacity="0.9921568627450981" d="M 24 5 L 207 5.5 L 28.5 6 L 27.5 7 L 26.5 6 L 24 7.5 L 24 5 Z "></path><path fill="rgb(70,94,247)" stroke="rgb(70,94,247)" stroke-width="1" opacity="0.9921568627450981" d="M 20.5 6 L 22 6.5 L 18 8 L 15.5 12 L 11 13 L 12 15.5 L 10 15.5 L 11 19.5 L 10 19.5 Q 10.8 17.3 8.5 18 L 8 20.5 L 7 22.5 Q 9.3 23.7 6.5 25 L 6 21.5 Q 8.5 13.5 14.5 9 L 20.5 6 Z "></path><path fill="rgb(70,94,247)" stroke="rgb(70,94,247)" stroke-width="1" opacity="0.9921568627450981" d="M 208.5 6 L 213 7.5 L 211.5 8 L 208.5 7 L 208.5 6 Z "></path><path fill="rgb(70,94,247)" stroke="rgb(70,94,247)" stroke-width="1" opacity="0.9921568627450981" d="M 206.5 8 L 207 11 Q 204.3 12.1 205 9.5 L 206.5 8 Z "></path><path fill="rgb(70,94,247)" stroke="rgb(70,94,247)" stroke-width="1" opacity="0.9921568627450981" d="M 214.5 8 Q 222.3 12.8 225 22.5 L 225 222.5 Q 222.5 231.5 215.5 236 L 206.5 240 L 24.5 240 Q 15.1 237.9 10 231.5 Q 6 227.3 6 220 L 10 222.5 L 9.5 224 Q 11.8 223.3 11 225.5 Q 7.5 227 10 228.5 Q 9.3 230.8 11.5 230 L 11.5 232 L 18.5 237 L 22.5 238 L 24 235.5 L 23.5 234 L 26.5 238 L 29.5 239 L 30.5 238 L 76.5 238 L 81.5 239 L 82.5 238 L 144.5 238 L 145.5 239 L 157.5 239 L 158.5 238 L 206.5 238 L 208.5 237 L 210.5 238 L 214 235.5 L 214 234 Q 217.7 235.5 217 232.5 L 218.5 229 L 220 229.5 Q 219.3 226.9 222 228 L 222 225.5 L 222.5 223 L 224 222.5 L 224 220.5 L 224 22.5 L 222 17 Q 218.2 18.5 219 15.5 L 219.5 14 L 217 12.5 L 215.5 10 Q 213.3 9.3 214 11.5 Q 216.3 12.8 213.5 14 L 213 11.5 L 214.5 8 Z "></path><path fill="rgb(70,94,247)" stroke="rgb(70,94,247)" stroke-width="1" opacity="0.9921568627450981" d="M 24.5 9 Q 27.5 10.5 24.5 12 L 24.5 9 Z "></path><path fill="rgb(70,94,247)" stroke="rgb(70,94,247)" stroke-width="1" opacity="0.9921568627450981" d="M 19.5 13 L 20.5 15 Q 17.7 15.7 19.5 13 Z "></path><path fill="rgb(70,94,247)" stroke="rgb(70,94,247)" stroke-width="1" opacity="0.9921568627450981" d="M 13.5 16 L 16 16.5 L 13.5 17 L 13.5 16 Z "></path><path fill="rgb(70,94,247)" stroke="rgb(70,94,247)" stroke-width="1" opacity="0.9921568627450981" d="M 11.5 22 L 9.5 25 L 11.5 22 Z "></path><path fill="rgb(70,94,247)" stroke="rgb(70,94,247)" stroke-width="1" opacity="0.9921568627450981" d="M 6 31 Q 9 29.8 8 33.5 L 6 32.5 L 6 31 Z "></path><path fill="rgb(70,94,247)" stroke="rgb(70,94,247)" stroke-width="1" opacity="0.9921568627450981" d="M 154.5 33 L 158 33.5 L 154.5 34 L 154.5 33 Z "></path><path fill="rgb(70,94,247)" stroke="rgb(70,94,247)" stroke-width="1" opacity="0.9921568627450981" d="M 64.5 41 Q 66 43.5 71.5 42 L 74.5 41 L 75.5 42 L 154.5 42 L 156.5 42 L 166 42 L 166 46.5 L 166 48.5 L 166 64.5 L 167 67 L 165 66.5 L 165 43.5 L 164.5 43 L 62.5 43 L 62.5 42 L 64.5 41 Z "></path><path fill="rgb(70,94,247)" stroke="rgb(70,94,247)" stroke-width="1" opacity="0.9921568627450981" d="M 168.5 43 Q 170.8 42.3 170 44.5 L 168.5 43 Z "></path><path fill="rgb(70,94,247)" stroke="rgb(70,94,247)" stroke-width="1" opacity="0.9921568627450981" d="M 62.5 44 L 64 48.5 L 63 49.5 L 63 201.5 L 64.5 203 L 165 203 L 165.5 180 L 167 190.5 L 166 194.5 L 167 198.5 L 164.5 204 L 161 204.5 Q 163.3 205.8 160.5 207 L 158 206.5 L 159 204 L 154.5 205 L 140.5 205 L 94.5 205 Q 93 202.5 87.5 204 L 85.5 204 L 76.5 204 L 75.5 205 L 73 204 L 72.5 206 L 70.5 204 L 63 204 L 61.5 207 L 62 205.5 L 61 203.5 L 63 202.5 L 61 198.5 L 62 197.5 L 62.5 44 Z "></path><path fill="rgb(70,94,247)" stroke="rgb(70,94,247)" stroke-width="1" opacity="0.9921568627450981" d="M 172.5 46 L 173 49 Q 170.3 50.1 171 47.5 L 172.5 46 Z "></path><path fill="rgb(70,94,247)" stroke="rgb(70,94,247)" stroke-width="1" opacity="0.9921568627450981" d="M 94.5 67 L 164 67.5 L 162 68 L 161.5 70 L 161 68 L 94.5 68 L 94.5 67 Z "></path><path fill="rgb(70,94,247)" stroke="rgb(70,94,247)" stroke-width="1" opacity="0.9921568627450981" d="M 171 67 Q 174.3 65.9 173 70 Q 169.7 71.1 171 67 Z "></path><path fill="rgb(70,94,247)" stroke="rgb(70,94,247)" stroke-width="1" opacity="0.9921568627450981" d="M 94.5 81 L 95 100.5 L 94 100.5 L 94.5 81 Z "></path><path fill="rgb(70,94,247)" stroke="rgb(70,94,247)" stroke-width="1" opacity="0.9921568627450981" d="M 94.5 103 L 96 107.5 L 95.5 109 L 97.5 110 L 149.5 110 L 152 111 L 151 113.5 L 150.5 129 L 150 111 L 94.5 111 L 94 110.5 L 94.5 103 Z "></path><path fill="rgb(70,94,247)" stroke="rgb(70,94,247)" stroke-width="1" opacity="0.9921568627450981" d="M 103 104 L 107 105.5 L 103 106 L 103 104 Z "></path><path fill="rgb(70,94,247)" stroke="rgb(70,94,247)" stroke-width="1" opacity="0.9921568627450981" d="M 150 131 Q 154.1 129.7 153 133 Q 148.9 134.3 150 131 Z "></path><path fill="rgb(70,94,247)" stroke="rgb(70,94,247)" stroke-width="1" opacity="0.9921568627450981" d="M 94 134 L 149 134.5 Q 147.8 137.3 146.5 135 L 99.5 135 L 97.5 137 L 95 136 L 94.5 143 L 94 134 Z "></path><path fill="rgb(70,94,247)" stroke="rgb(70,94,247)" stroke-width="1" opacity="0.9921568627450981" d="M 151 142 L 155 142.5 Q 153 147 151 143.5 L 151 142 Z "></path><path fill="rgb(70,94,247)" stroke="rgb(70,94,247)" stroke-width="1" opacity="0.9921568627450981" d="M 94.5 146 L 95 173.5 L 97.5 178 L 160.5 178 L 163.5 177 L 164.5 179 L 94 179 L 94.5 146 Z "></path><path fill="rgb(70,94,247)" stroke="rgb(70,94,247)" stroke-width="1" opacity="0.9921568627450981" d="M 168 177 Q 171.3 175.9 170 180 Q 166.7 181.1 168 177 Z "></path><path fill="rgb(70,94,247)" stroke="rgb(70,94,247)" stroke-width="1" opacity="0.9921568627450981" d="M 171.5 203 Q 173.8 202.3 173 204.5 L 171.5 203 Z "></path><path fill="rgb(70,94,247)" stroke="rgb(70,94,247)" stroke-width="1" opacity="0.9921568627450981" d="M 91.5 205 L 92.5 207 L 91.5 205 Z "></path><path fill="rgb(70,94,247)" stroke="rgb(70,94,247)" stroke-width="1" opacity="0.9921568627450981" d="M 165 205 Q 168.7 203.8 167 209 L 164 207.5 L 165 205 Z "></path><path fill="rgb(70,94,247)" stroke="rgb(70,94,247)" stroke-width="1" opacity="0.9921568627450981" d="M 66.5 207 L 69.5 208 Q 70.7 205.8 72 208.5 L 69.5 209 Q 65.7 209.5 66.5 207 Z "></path><path fill="rgb(70,94,247)" stroke="rgb(70,94,247)" stroke-width="1" opacity="0.9921568627450981" d="M 6.5 209 L 7 216.5 L 6 216.5 L 6.5 209 Z "></path><path fill="rgb(70,94,247)" stroke="rgb(70,94,247)" stroke-width="1" opacity="0.9921568627450981" d="M 213.5 225 L 215.5 228 L 217 227.5 Q 217.8 229.8 215.5 229 L 213.5 225 Z "></path><path fill="rgb(70,94,247)" stroke="rgb(70,94,247)" stroke-width="1" opacity="0.9921568627450981" d="M 25.5 227 Q 29.9 225.5 29 228.5 Q 27.8 231.3 26.5 229 L 24 228.5 L 25.5 227 Z "></path><path fill="rgb(70,94,247)" stroke="rgb(70,94,247)" stroke-width="1" opacity="0.9921568627450981" d="M 207 233 Q 210 232 209 235 Q 206 236 207 233 Z "></path></svg>